<svg viewBox="0 0 96 96" xmlns="http://www.w3.org/2000/svg" xmlns:xlink="http://www.w3.org/1999/xlink" id="Icons_Ribbon" overflow="hidden"><path d="M40.2 65.3C38.8 65.3 37.5 65 36.2 64.5 34.1 63.7 32.3 62.2 31 60.3 30.9 60.3 30.7 60.2 30.6 60.2L18.6 83.8 28.7 81.5 33.8 91 46.3 66.6C44.9 66.4 43.5 65.8 42.3 65.1 41.6 65.2 40.9 65.3 40.2 65.3Z"/><path d="M61.1 64C59.7 64.6 58.2 64.9 56.7 64.9 55.9 64.9 55.2 64.8 54.4 64.7 52.9 65.7 51.2 66.4 49.4 66.6L62.6 90.4 67.8 81.9 78 83.6 65.3 60.8C64.2 62.2 62.8 63.3 61.1 64Z"/><path d="M47.7 51.6C38.2 51.6 30.4 43.9 30.4 34.3 30.4 24.7 38.2 17 47.7 17 57.2 17 65 24.7 65 34.3 65 43.9 57.2 51.6 47.7 51.6ZM77.2 34.3C77.2 32.1 76.3 30.1 74.8 28.7 75.6 26.8 75.7 24.6 74.8 22.6 74 20.8 72.6 19.4 70.9 18.7 70.8 16.9 70.1 15.1 68.7 13.7 67.1 12.1 65.1 11.4 63 11.5 62.3 9.6 60.8 8 58.7 7.2 56.9 6.5 54.9 6.5 53.2 7.2 51.8 6 50.1 5.2 48.1 5.2 45.9 5.2 43.9 6.1 42.5 7.6 40.6 6.8 38.4 6.7 36.4 7.6 34.6 8.4 33.2 9.8 32.5 11.5 30.7 11.6 28.9 12.3 27.5 13.7 25.9 15.3 25.2 17.3 25.3 19.4 23.4 20.1 21.8 21.6 21 23.7 20.3 25.5 20.3 27.5 21 29.2 19.8 30.6 19 32.3 19 34.3 19 36.5 19.9 38.5 21.4 39.9 20.6 41.8 20.5 44 21.4 46 22.2 47.8 23.6 49.2 25.3 49.9 25.4 51.7 26.1 53.5 27.5 54.9 29.1 56.5 31.1 57.2 33.2 57.1 33.9 59 35.4 60.6 37.5 61.4 39.3 62.1 41.3 62.1 43 61.4 44.4 62.6 46.1 63.4 48.1 63.4 50.3 63.4 52.3 62.5 53.7 61 55.6 61.8 57.8 61.9 59.8 61 61.6 60.2 63 58.8 63.7 57.1 65.5 57 67.3 56.3 68.7 54.9 70.3 53.3 71 51.3 70.9 49.2 72.8 48.5 74.4 47 75.2 44.9 75.9 43.1 75.9 41.1 75.2 39.4 76.4 38.1 77.2 36.3 77.2 34.3Z"/></svg>