<svg viewBox="0 0 96 96" xmlns="http://www.w3.org/2000/svg" xmlns:xlink="http://www.w3.org/1999/xlink" id="Icons_Hourglass" overflow="hidden"><path d="M53.6 53.3C57 56 60.2 60.7 62.6 66L33.4 66C35.9 60.7 39 55.9 42.4 53.3 44 52 45 50.1 45 48 45 45.9 44 44 42.4 42.7 35.6 37.4 29.7 23.8 28.7 14L67.4 14C66.3 23.8 60.5 37.4 53.7 42.7 52 44 51 45.9 51 48 51 50.1 52 52 53.6 53.3ZM73.3 14 76 14 76 8 20 8 20 14 22.6 14C23.7 25.1 30.1 41.3 39.4 48 30.1 54.7 23.6 70.9 22.6 82L20 82 20 88 76 88 76 82 73.3 82C72.3 70.9 65.8 54.7 56.5 48 65.8 41.3 72.3 25.1 73.3 14Z"/></svg>