<svg viewBox="0 0 96 96" xmlns="http://www.w3.org/2000/svg" xmlns:xlink="http://www.w3.org/1999/xlink" id="Icons_Newspaper" overflow="hidden"><path d="M76 74C76 75.1 75.1 76 74 76 72.9 76 72 75.1 72 74L72 26 76 26 76 74ZM22 76C20.9 76 20 75.1 20 74L20 20 66 20 66 74C66 74.7 66.1 75.4 66.3 76L22 76ZM72 20 72 14 14 14 14 74C14 78.4 17.6 82 22 82L74 82C78.4 82 82 78.4 82 74L82 20 72 20Z"/><rect x="24" y="26" width="38" height="4"/><rect x="45" y="34" width="17" height="4"/><rect x="45" y="42" width="17" height="4"/><rect x="24" y="34" width="17" height="12"/><rect x="24" y="50" width="38" height="4"/><rect x="45" y="58" width="17" height="12"/><rect x="24" y="58" width="17" height="4"/><rect x="24" y="66" width="17" height="4"/></svg>