<svg viewBox="0 0 96 96" xmlns="http://www.w3.org/2000/svg" xmlns:xlink="http://www.w3.org/1999/xlink" id="Icons_Contract_RTL" overflow="hidden"><g><path d="M73 82 23 82 23 14 73 14 73 82ZM79 8 17 8 17 88 79 88 79 8Z"/><rect x="29" y="66" width="18" height="4"/><rect x="29" y="22" width="38" height="4"/><rect x="29" y="30" width="38" height="4"/><rect x="29" y="38" width="38" height="4"/><rect x="48" y="46" width="19" height="4"/><path d="M63.9 75 60 71.1 56.1 75 53 71.9 56.9 68 53 64.1 56.1 61 60 64.9 63.9 61 67 64.1 63.1 68 67 71.9Z"/></g></svg>